Coordinates
version=1
nRows=19
nColumns=36
inDegrees=yes

Units are S.I. units (second, meters, Newtons, ...)
If the header above contains a line with 'inDegrees', this indicates whether rotational values are in degrees (yes) or radians (no).

endheader
time	pelvis_tilt	pelvis_list	pelvis_rotation	pelvis_tx	pelvis_ty	pelvis_tz	hip_flexion_r	hip_adduction_r	hip_rotation_r	knee_angle_r	knee_angle_r_beta	ankle_angle_r	subtalar_angle_r	mtp_angle_r	hip_flexion_l	hip_adduction_l	hip_rotation_l	knee_angle_l	knee_angle_l_beta	ankle_angle_l	subtalar_angle_l	mtp_angle_l	lumbar_extension	lumbar_bending	lumbar_rotation	arm_flex_r	arm_add_r	arm_rot_r	elbow_flex_r	pro_sup_r	arm_flex_l	arm_add_l	arm_rot_l	elbow_flex_l	pro_sup_l
      0.00000000	      8.49031614	      2.43941825	    181.30595448	      0.28996759	      0.95894074	      0.75012667	     31.23299728	     -3.41384544	      2.51956403	     48.28838284	      0.84279127	     -7.36706605	    -19.59461023	     -7.23974497	     24.72684923	     -1.68829124	      0.31603182	     29.52079421	      0.51523506	      3.45515917	    -10.40496606	     -7.23974497	    -13.84775612	      1.60237011	      6.36660689	     -6.91454927	    -18.30331012	    -20.79940904	     68.03476093	     82.37632007	      9.35091776	    -14.68720465	      5.53926554	     59.41066883	     83.27603908
      0.01666670	      9.53878280	      1.72655993	    180.54477715	      0.29557810	      0.95892428	      0.75151579	     33.79426858	     -4.08597602	      3.26853319	     47.17933246	      0.82343469	     -5.15325989	    -15.29115833	     -7.24820721	     25.24139459	     -1.35768759	      0.71084896	     29.61821599	      0.51693539	      3.41744103	     -7.43718407	     -7.24820721	    -14.22226792	      0.56410030	      6.10573817	     -8.40053610	    -17.96043342	    -21.16938034	     74.66716384	     81.96363019	      9.13236669	    -15.56669627	      4.48046097	     64.01686994	     83.25552564
      0.03333330	     10.84777358	      1.65653811	    180.25417293	      0.30065038	      0.96139775	      0.75239874	     36.08454197	     -4.30963865	      2.92916356	     44.02779064	      0.76842991	     -4.80031838	    -14.68264580	     -7.26518546	     25.55822423	     -1.25976902	      1.77007360	     29.18886589	      0.50944181	      1.54711626	     -8.98019780	     -7.26518546	    -14.62861254	      0.55679401	      5.76216595	     -8.83541070	    -17.54823884	    -22.34331429	     78.54692799	     80.69945659	      8.73497119	    -15.36481123	      2.33348012	     67.63468940	     82.49747755
      0.05000000	     11.77264531	      1.23363424	    180.70845958	      0.30243918	      0.96454022	      0.75260894	     37.47628214	     -4.75877955	      2.87185486	     39.54568504	      0.69020241	     -4.63604151	    -14.28579878	     -7.30657332	     25.10839201	     -0.72610563	      2.44883362	     28.17072009	      0.49167182	      0.40430252	     -9.76333606	     -7.30657332	    -14.51116002	      0.22353912	      3.77830169	     -7.91796736	    -17.49699679	    -21.04946909	     79.09563835	     79.10321238	      8.01548578	    -15.77658015	      0.58340548	     70.04673211	     82.15835413
      0.06666670	     12.23574938	      0.78681516	    181.22725483	      0.30223879	      0.96589446	      0.75205013	     37.89556052	     -5.40783288	      2.41352489	     34.47067626	      0.60162680	     -5.52335115	    -12.90065521	     -7.32567159	     23.66115512	     -0.21954113	      2.49865158	     27.00538168	      0.47133283	     -0.62596038	    -10.31242365	     -7.32567159	    -14.05041083	     -0.12049741	      2.61021538	     -7.49441825	    -17.19251649	    -20.61403706	     78.62555443	     78.91810619	      7.85723293	    -16.07221009	      0.40868932	     70.69527968	     82.03113622
      0.08333330	     12.13899847	      0.26517731	    181.60402419	      0.30272602	      0.96467830	      0.75071808	     37.54054031	     -6.28031151	      1.97654381	     29.47355338	      0.51441055	     -6.82144073	    -10.70294900	     -7.33535440	     21.80783122	      0.25731234	      2.17339096	     26.43561710	      0.46138856	     -0.68307650	    -10.95140101	     -7.33535440	    -13.76867984	     -0.54138294	      1.82005017	     -6.98101024	    -16.87687605	    -20.11795841	     77.65848628	     78.94009571	      7.69307764	    -16.31054630	      0.40815035	     70.89577611	     82.09301935
      0.10000000	     11.79150321	     -0.15039001	    181.94311439	      0.30429725	      0.96369510	      0.74853772	     36.57143012	     -7.19205393	      1.35930363	     24.42757574	      0.42634163	     -7.97588581	     -7.88341715	     -7.35040122	     20.07130167	      0.61973095	      2.11278073	     26.41859496	      0.46109147	      0.04982327	    -11.30042386	     -7.35040122	    -13.75836370	     -0.74201507	      1.27974396	     -6.46628915	    -16.56760079	    -19.63787892	     76.99530715	     79.15930091	      7.56672126	    -16.58186733	      0.58013753	     71.08502858	     82.35899062
      0.11666670	     11.42655834	     -0.65853053	    182.34471419	      0.30576284	      0.96556038	      0.74587374	     35.11753116	     -8.14890903	      0.56942357	     19.36254825	      0.33794022	     -9.04311393	     -4.86626242	     -7.35451830	     18.42015178	      1.03837308	      2.24977095	     26.29181837	      0.45887880	      1.01184056	    -11.04692875	     -7.35451830	    -13.78391273	     -1.01306003	      0.82248196	     -6.05174423	    -16.02675763	    -19.41387655	     76.52111670	     79.49963546	      7.53199518	    -17.05700259	      1.01609427	     71.11421192	     82.85489641
      0.13333330	     11.06072656	     -1.39547352	    182.85067060	      0.30723697	      0.96932710	      0.74398324	     33.61703960	     -9.27742328	     -0.39881839	     14.73108193	      0.25710588	    -10.19646669	     -1.84165502	     -7.35893661	     16.65345714	      1.66175053	      2.37740905	     25.73322064	      0.44912943	      1.81302031	    -10.33898050	     -7.35893661	    -13.96176411	     -1.53114139	      0.23810271	     -5.66750623	    -15.38833381	    -19.20970134	     76.18482657	     79.99731346	      7.44898530	    -17.61832810	      1.42622100	     70.99646650	     83.47683449
      0.15000000	     10.86325990	     -2.22119652	    183.49267836	      0.31053401	      0.97103847	      0.74235362	     32.66282764	    -10.46740876	     -1.30695310	     10.95578191	      0.19121447	    -11.36595993	      0.77702811	     -7.36257179	     15.07798346	      2.38511090	      2.59040248	     24.93581696	      0.43521211	      2.35410828	     -9.74070872	     -7.36257179	    -14.18564963	     -2.12729271	     -0.41625538	     -5.21890100	    -14.67367011	    -19.15772830	     76.00467961	     80.42155173	      7.41194741	    -18.08762861	      1.72764685	     70.78607468	     83.96268549
      0.16666670	     10.72201919	     -2.97323907	    184.12828665	      0.31536290	      0.96972695	      0.73895589	     32.17268791	    -11.44866086	     -1.98473564	      8.26224734	      0.14420342	    -11.99829189	      3.04895482	     -7.36797741	     13.59400040	      2.99638883	      2.96214574	     24.02630038	      0.41933805	      2.89129703	     -9.26370457	     -7.36797741	    -14.51146129	     -2.75922461	     -1.02683589	     -4.41341473	    -14.11465755	    -18.89950707	     75.89805123	     81.09079154	      7.68334500	    -18.43897550	      1.94145595	     70.72055733	     84.61907060
      0.18333330	     10.80724436	     -3.48767152	    184.60592109	      0.31987482	      0.96550092	      0.73308302	     32.11988755	    -11.93108556	     -2.06790804	      6.73406692	      0.11753164	    -12.01155112	      4.23698327	     -7.39587441	     12.44886363	      3.24599112	      3.26199243	     23.31164555	      0.40686497	      3.49636931	     -8.56592232	     -7.39587441	    -14.45683674	     -3.31036696	     -2.17277526	     -2.73124975	    -13.66887098	    -17.72121085	     75.26662397	     84.93211978	      7.62269543	    -18.81533403	      0.84614057	     71.23389530	     88.06770121
      0.20000000	     11.10326925	     -3.63968722	    184.91975556	      0.32368835	      0.96078606	      0.72643273	     32.39035631	    -11.86409390	     -1.79289814	      6.42613275	      0.11215717	    -11.53943977	      4.31629584	     -7.39675684	     11.79776430	      3.10135625	      3.70527530	     23.17261683	      0.40443846	      4.00574318	     -8.25190433	     -7.39675684	    -14.09576118	     -3.60257564	     -2.17633357	     -1.90661411	    -13.27292746	    -17.47471807	     75.48968162	     84.91950470	      8.63842243	    -18.85218079	      0.80733022	     71.50140848	     88.03404258
      0.21666670	     11.01402541	     -3.65229202	    185.22309012	      0.32803451	      0.95800763	      0.72037404	     32.40164392	    -11.59748855	     -1.46778121	      7.33815680	      0.12807500	    -10.07607101	      3.74246400	     -7.39765363	     11.29559940	      2.74766930	      4.13440457	     24.04769171	      0.41971140	      4.95084745	     -7.42961778	     -7.39765363	    -14.22121072	     -3.76843299	     -2.23492523	     -0.73517681	    -13.01208532	    -17.03305975	     75.42581689	     85.01027725	      9.90418630	    -19.08494471	      0.85371766	     71.67318735	     88.09799549
      0.23333330	     10.88289598	     -3.42580006	    185.33807861	      0.33219990	      0.95617787	      0.71528770	     32.40491968	    -11.00736100	     -1.20115075	      8.98598950	      0.15683510	     -8.68937852	      2.66413838	     -7.39852328	     11.28878515	      2.08968767	      4.47453069	     25.89277150	      0.45191412	      5.79394143	     -6.73466573	     -7.39852328	    -14.36379061	     -3.71013793	     -2.16309353	      0.42013841	    -12.98787202	    -16.49256172	     75.26586374	     85.12508375	     11.04243749	    -19.25256218	      0.84108126	     71.76910801	     88.14752976
      0.25000000	     10.90584369	     -3.11585586	    185.24551917	      0.33450446	      0.95419156	      0.71096628	     32.61369589	    -10.23458295	     -0.53386584	     11.02821396	      0.19247864	     -8.09781494	      0.18337892	     -7.41306532	     11.87744911	      1.27415469	      4.62389251	     28.74671974	      0.50172491	      6.86489513	     -5.80166903	     -7.41306532	    -14.00763909	     -3.52676089	     -3.07305318	      2.45183472	    -13.31783071	    -13.74843578	     73.63639937	     86.49226275	     10.75614218	    -19.65978907	     -0.66224157	     71.85777734	     88.60180846
      0.26666670	     10.63234974	     -2.91991228	    184.80637616	      0.33431900	      0.95056345	      0.70665926	     32.57136262	     -9.49659713	     -0.09680576	     13.12175223	      0.22901778	     -7.91273081	     -2.10835760	     -7.41575015	     12.29008434	      0.68992263	      5.19164724	     32.30631984	      0.56385165	      7.11716777	     -6.99626948	     -7.41575015	    -14.04943655	     -3.38999463	     -2.59723486	      3.01650053	    -13.42787536	    -13.18012454	     73.35970924	     86.71027530	     11.14189084	    -19.41441910	     -1.41616132	     71.19440830	     88.61446617
      0.28333330	      9.97289114	     -2.71442721	    183.87546206	      0.33052931	      0.94670722	      0.70072614	     32.16074311	     -8.55610732	      0.16594989	     15.13425471	      0.26414257	     -7.65964337	     -3.83642506	     -7.41685201	     12.23347233	      0.04432642	      5.55261397	     36.43775177	      0.63595874	      7.30080929	     -8.66412257	     -7.41685201	    -14.33046582	     -3.27617047	     -1.74730605	      3.30100264	    -13.39834101	    -12.70363998	     72.92307957	     86.83401876	     10.99407587	    -19.20283845	     -2.01463970	     70.62336541	     88.59024186
      0.30000000	      9.20755257	     -2.31086920	    182.55353966	      0.32428475	      0.94327085	      0.69324742	     31.61485771	     -7.20053529	      0.41060776	     17.23493678	      0.30080639	     -7.33354070	     -5.43153076	     -7.41841731	     12.01243439	     -0.84431200	      5.60287526	     41.05011332	      0.71645964	      7.13261650	    -10.38931827	     -7.41841731	    -14.50352387	     -3.01094044	     -0.44178314	      3.44410545	    -13.25500123	    -12.08721901	     72.43642371	     86.80787692	     10.32372497	    -18.90853479	     -2.57313402	     69.95932067	     88.40253827
